<svg className="size-4" xmlns="http://www.w3.org/2000/svg" width="24" height="24" viewBox="0 0 24 24" fill="none" stroke="currentColor" strokeWidth="2" strokeLinecap="round" strokeLinejoin="round">
                      <path d="M16 20V4H8v16" />
                      <path d="M12 4v16" />
                      <path d="M4 14v4" />
                      <path d="M20 14v4" />
                      <path d="M4 14a4 4 0 0 1 4 4" />
                      <path d="M16 14a4 4 0 0 0-4 4" />
                      <path d="M20 14a4 4 0 0 0-4 4" />
                      <path d="M12 4a4 4 0 0 1-4 4" />
                      <path d="M12 4a4 4 0 0 0 4 4" />
                    </svg>