<svg className="size-4" xmlns="http://www.w3.org/2000/svg" width="24" height="24" viewBox="0 0 24 24" fill="none" stroke="currentColor" strokeWidth="2" strokeLinecap="round" strokeLinejoin="round">
                      <path d="M14.5 14H18a2 2 0 0 0 2-2V8.5a2 2 0 0 0-2-2h-.5a2 2 0 0 1-2-2v-.5a2 2 0 0 0-2-2h-3.5a2 2 0 0 0-2 2v.5a2 2 0 0 1-2 2H4a2 2 0 0 0-2 2V12a2 2 0 0 0 2 2h3.5a2 2 0 0 1 2 2v.5a2 2 0 0 0 2 2h3.5a2 2 0 0 0 2-2v-.5a2 2 0 0 1 2-2h.5a2 2 0 0 0 2 2V12a2 2 0 0 0-2-2h-3.5a2 2 0 0 1-2-2v-.5a2 2 0 0 0-2-2h-3.5a2 2 0 0 0-2 2v.5a2 2 0 0 1-2 2H4a2 2 0 0 0-2 2V12a2 2 0 0 0 2 2h3.5a2 2 0 0 1 2 2v.5a2 2 0 0 0 2 2h3.5a2 2 0 0 0 2-2v-.5a2 2 0 0 1 2-2h.5a2 2 0 0 0 2 2V12a2 2 0 0 0-2-2h-3.5a2 2 0 0 1-2-2v-.5a2 2 0 0 0-2-2h-3.5a2 2 0 0 0-2 2v.5a2 2 0 0 1-2 2H4a2 2 0 0 0-2 2V12a2 2 0 0 0 2 2h3.5a2 2 0 0 1 2 2v.5a2 2 0 0 0 2 2h3.5a2 2 0 0 0 2-2v-.5a2 2 0 0 1 2-2h.5a2 2 0 0 0 2 2V12a2 2 0 0 0-2-2z" />
                    </svg>